<svg xmlns="http://www.w3.org/2000/svg" viewBox="0 0 1024 1024" width="1024" height="1024">
  <!-- 검정 배경 (rounded square) — 테마와 무관하게 고정 -->
  <rect x="0" y="0" width="1024" height="1024" rx="220" ry="220" fill="#000000"/>
  <!-- 중앙에 비행기 아이콘 (lucide Plane) — 24x24 원본을 크게 스케일, 흰 테두리 -->
  <g transform="translate(512,512) scale(28) translate(-12,-12)"
     fill="none"
     stroke="#ffffff"
     stroke-width="2"
     stroke-linecap="round"
     stroke-linejoin="round">
    <path d="M17.8 19.2 16 11l3.5-3.5C21 6 21.5 4 21 3c-1-.5-3 0-4.5 1.5L13 8 4.8 6.2c-.5-.1-.9.1-1.1.5l-.3.5c-.2.5-.1 1 .3 1.3L9 12l-2 3H4l-1 1 3 2 2 3 1-1v-3l3-2 3.5 5.3c.3.4.8.5 1.3.3l.5-.2c.4-.3.6-.7.5-1.2z"/>
  </g>
</svg>
